# xmcd
#
# Track frame offsets:
#	182
#	16792
#	36840
#	57457
#	75280
#	96230
#	120127
#	139687
#	159977
#	176520
#	193355
#	211377
#	229172
#
# Disc length: 3309 seconds
#
# Revision: 15
# Processed by: cddbd v1.5.2PL0 Copyright (c) Steve Scherf et al.
# Submitted via: EasyCDDAExtractor 15.3.0.1
#
DISCID=a10ceb0d
DTITLE=Laura Pausini - Mi Respuesta
DYEAR=1998
DGENRE=Latin
TTITLE0=Mi Respuesta
TTITLE1=Quedate Esta Noche
TTITLE2=Emergencia De Amor
TTITLE3=Ana Dime Si
TTITLE4=Una Historia Seria
TTITLE5=Como Una Danza
TTITLE6=Me Siento Tan Bien
TTITLE7=En Ausencia De Ti
TTITLE8=Sucede A Veces
TTITLE9=Tu Con Que Sueñas
TTITLE10=Una Gran Verdad
TTITLE11=Felicidad
TTITLE12=Looking For An Angel
EXTD=YEAR: 1998
EXTT0=
EXTT1=
EXTT2=
EXTT3=
EXTT4=
EXTT5=
EXTT6=
EXTT7=
EXTT8=
EXTT9=
EXTT10=
EXTT11=
EXTT12=
PLAYORDER=
